<?xml version="1.0" encoding="utf-8"?>
<!-- Generator: Adobe Illustrator 19.1.1, SVG Export Plug-In . SVG Version: 6.00 Build 0)  -->
<svg version="1.1" id="Layer_1" xmlns:sketch="http://www.bohemiancoding.com/sketch/ns"
	 xmlns="http://www.w3.org/2000/svg" xmlns:xlink="http://www.w3.org/1999/xlink" x="0px" y="0px" viewBox="-375 241.5 91 92.5"
	 style="enable-background:new -375 241.5 91 92.5;" xml:space="preserve">
<title>add</title>
<desc>Created with Sketch.</desc>
<g sketch:type="MSPage">
	<path sketch:type="MSShapeGroup" d="M-300.7,266v12.6c0,2.2-1.7,3.9-3.8,3.9s-3.8-1.7-3.8-3.9V266h-11.9c-2.1,0-3.8-1.7-3.8-3.8
		s1.7-3.8,3.8-3.8h11.9v-11.9c0-2.2,1.7-3.9,3.8-3.9s3.8,1.7,3.8,3.9v11.9h12.8c2.1,0,3.8,1.7,3.8,3.8s-1.7,3.8-3.8,3.8H-300.7
		L-300.7,266z M-291.4,282.8v38.5c0,2-1.7,3.7-3.7,3.7H-363c-2,0-3.7-1.6-3.7-3.7v-67.9c0-2,1.6-3.7,3.7-3.7h38.9v-7.3H-363
		c-6.1,0-11,4.9-11,11v67.9c0,6.1,4.9,11,11,11h67.9c6.1,0,11-4.9,11-11v-38.5H-291.4L-291.4,282.8z"/>
</g>
</svg>
