<?xml version="1.0" encoding="UTF-8" standalone="no"?>
<!-- Created with Inkscape (http://www.inkscape.org/) -->

<svg
   xmlns:dc="http://purl.org/dc/elements/1.1/"
   xmlns:cc="http://creativecommons.org/ns#"
   xmlns:rdf="http://www.w3.org/1999/02/22-rdf-syntax-ns#"
   xmlns:svg="http://www.w3.org/2000/svg"
   xmlns="http://www.w3.org/2000/svg"
   xmlns:sodipodi="http://sodipodi.sourceforge.net/DTD/sodipodi-0.dtd"
   xmlns:inkscape="http://www.inkscape.org/namespaces/inkscape"
   width="24.835556mm"
   height="24mm"
   viewBox="0 0 88.000002 85.039369"
   id="svg3381"
   version="1.1"
   inkscape:version="0.91 r13725"
   sodipodi:docname="move.svg">
  <defs
     id="defs3383" />
  <sodipodi:namedview
     id="base"
     pagecolor="#ffffff"
     bordercolor="#666666"
     borderopacity="1.0"
     inkscape:pageopacity="0.0"
     inkscape:pageshadow="2"
     inkscape:zoom="5.6986577"
     inkscape:cx="27.217342"
     inkscape:cy="55.080012"
     inkscape:document-units="px"
     inkscape:current-layer="g4237"
     showgrid="false"
     fit-margin-top="0"
     fit-margin-left="0"
     fit-margin-right="0"
     fit-margin-bottom="0"
     inkscape:window-width="1368"
     inkscape:window-height="849"
     inkscape:window-x="-8"
     inkscape:window-y="-8"
     inkscape:window-maximized="1" />
  <metadata
     id="metadata3386">
    <rdf:RDF>
      <cc:Work
         rdf:about="">
        <dc:format>image/svg+xml</dc:format>
        <dc:type
           rdf:resource="http://purl.org/dc/dcmitype/StillImage" />
        <dc:title></dc:title>
      </cc:Work>
    </rdf:RDF>
  </metadata>
  <g
     inkscape:label="Layer 1"
     inkscape:groupmode="layer"
     id="layer1"
     transform="translate(-333.9707,-464.79673)">
    <g
       id="g3362"
       transform="translate(327.9707,459.83608)">
      <g
         id="g4237"
         transform="translate(16.33229,15.819319)">
        <g
           style="fill:none;fill-rule:evenodd;stroke:none;stroke-width:1"
           id="g4824"
           transform="matrix(1.9298376,0,0,1.7017636,-13.44151,-11.124551)">
          <g
             style="fill:#000000"
             transform="translate(-1344,-2208)"
             id="g4826">
            <g
               transform="translate(96,2208)"
               id="g4828">
              <g
                 transform="translate(1248,0)"
                 id="g4830">
                <path
                   inkscape:connector-curvature="0"
                   d="m 22.036681,22 -11.179814,0 2.236608,-2.236609 c 0.78438,-0.78438 0.792526,-2.047965 0.006,-2.834459 -0.781048,-0.781048 -2.051989,-0.776438 -2.834459,0.006 l -5.6447905,5.644791 c -0.3955526,0.395552 -0.5896668,0.906917 -0.5893417,1.418772 -0.00353,0.512543 0.1910698,1.023446 0.58331,1.415687 0.00402,0.004 5.6508222,5.650822 5.6508222,5.650822 0.78438,0.78438 2.047965,0.792526 2.834459,0.006 0.781049,-0.781049 0.776439,-2.051989 -0.006,-2.834459 L 10.856867,26 l 11.179814,0 0,11.179815 -2.236609,-2.236609 c -0.78247,-0.78247 -2.05341,-0.78708 -2.834459,-0.006 -0.786493,0.786494 -0.778348,2.050079 0.006,2.834459 0,0 5.646803,5.646801 5.650823,5.650823 0.39224,0.39224 0.903143,0.586836 1.415686,0.58331 0.511855,3.25e-4 1.02322,-0.19379 1.418773,-0.589342 l 5.64479,-5.644791 c 0.78247,-0.78247 0.787081,-2.05341 0.006,-2.834459 -0.786494,-0.786494 -2.050079,-0.778348 -2.834459,0.006 l -2.236609,2.236609 0,-11.179815 11.177052,0 -2.236609,2.236609 c -0.78247,0.78247 -0.78708,2.05341 -0.006,2.834459 0.786494,0.786494 2.050079,0.778348 2.834459,-0.006 0,0 5.646801,-5.646803 5.650823,-5.650822 0.39224,-0.392241 0.586836,-0.903144 0.58331,-1.415687 3.25e-4,-0.511855 -0.19379,-1.02322 -0.589342,-1.418772 l -5.644791,-5.644791 c -0.78247,-0.78247 -2.05341,-0.78708 -2.834459,-0.006 -0.786494,0.786494 -0.778348,2.050079 0.006,2.834459 L 37.213733,22 l -11.177052,0 0,-11.177052 0,0 2.236609,2.236609 c 0.78438,0.78438 2.047965,0.792526 2.834459,0.006 0.781049,-0.781048 0.776438,-2.051989 -0.006,-2.834459 L 25.456927,4.5863395 C 25.061374,4.1907869 24.550009,3.9966727 24.038154,3.9969977 c -0.512543,-0.00353 -1.023446,0.1910699 -1.415686,0.5833101 -0.004,0.00402 -5.650823,5.6508222 -5.650823,5.6508222 -0.78438,0.78438 -0.792525,2.047965 -0.006,2.834459 0.781049,0.781049 2.051989,0.776439 2.834459,-0.006 l 2.236609,-2.236609 0,11.177052 0,0 z"
                   id="path4832" />
              </g>
            </g>
          </g>
        </g>
      </g>
    </g>
  </g>
</svg>
