<?xml version="1.0" encoding="UTF-8" standalone="no"?>
<svg
   xmlns:dc="http://purl.org/dc/elements/1.1/"
   xmlns:cc="http://creativecommons.org/ns#"
   xmlns:rdf="http://www.w3.org/1999/02/22-rdf-syntax-ns#"
   xmlns:svg="http://www.w3.org/2000/svg"
   xmlns="http://www.w3.org/2000/svg"
   xmlns:sodipodi="http://sodipodi.sourceforge.net/DTD/sodipodi-0.dtd"
   xmlns:inkscape="http://www.inkscape.org/namespaces/inkscape"
   version="1.1"
   x="0px"
   y="0px"
   width="40.230381"
   height="39.97081"
   viewBox="0 0 40.230381 39.97081"
   enable-background="new 0 0 100 100"
   xml:space="preserve"
   id="svg2"
   inkscape:version="0.48.4 r9939"
   sodipodi:docname="move.svg"><metadata
   id="metadata12"><rdf:RDF><cc:Work
       rdf:about=""><dc:format>image/svg+xml</dc:format><dc:type
         rdf:resource="http://purl.org/dc/dcmitype/StillImage" /></cc:Work></rdf:RDF></metadata><defs
   id="defs10" /><sodipodi:namedview
   pagecolor="#ffffff"
   bordercolor="#666666"
   borderopacity="1"
   objecttolerance="10"
   gridtolerance="10"
   guidetolerance="10"
   inkscape:pageopacity="0"
   inkscape:pageshadow="2"
   inkscape:window-width="640"
   inkscape:window-height="480"
   id="namedview8"
   showgrid="false"
   fit-margin-top="0"
   fit-margin-left="0"
   fit-margin-right="0"
   fit-margin-bottom="0"
   inkscape:zoom="2.36"
   inkscape:cx="47.905143"
   inkscape:cy="47.343143"
   inkscape:window-x="0"
   inkscape:window-y="0"
   inkscape:window-maximized="0"
   inkscape:current-layer="svg2" />
<g
   id="Captions"
   transform="translate(-2.0948569,-57.372332)">
</g>
<g
   id="Your_Icon"
   transform="matrix(0.41863333,0,0,0.41863333,-0.87697693,-0.78027262)">
	<path
   d="M 97.098,47.887 C 93.088,43.815 75.645,32.422 72.786,32.422 l -0.428,0.089 c -0.421,0.21 -0.849,0.768 -1.16,4.93 -0.094,1.258 -0.172,2.994 -0.223,4.979 -0.541,-0.07 -1.094,-0.128 -1.662,-0.128 L 57.539,42.28 57.547,29.922 c 0,-0.347 -0.047,-0.67 -0.073,-1.005 1.958,-0.047 3.671,-0.116 4.917,-0.21 4.189,-0.3 4.75,-0.717 4.961,-1.137 l 0.093,-0.429 C 67.453,24.303 56.021,6.953 51.925,2.954 51.147,2.183 50.609,1.856 50.165,1.864 47.439,1.911 32.854,24.61 32.854,27.121 l 0.132,0.495 c 0.467,0.643 4.688,1.027 9.89,1.219 -0.031,0.354 -0.086,0.696 -0.086,1.062 L 42.774,42.263 30.331,42.251 c -0.343,0 -0.67,0.046 -1.005,0.073 -0.05,-1.946 -0.121,-3.644 -0.21,-4.882 -0.304,-4.162 -0.725,-4.724 -1.145,-4.93 L 27.535,32.419 C 24.678,32.414 7.219,43.771 3.193,47.84 2.414,48.615 2.087,49.145 2.095,49.584 2.142,52.298 24.989,66.786 27.52,66.786 l 0.491,-0.129 c 0.65,-0.471 1.036,-4.66 1.23,-9.827 0.358,0.031 0.705,0.082 1.075,0.082 l 12.443,0.016 -0.015,11.704 c 0,0.588 0.058,1.16 0.132,1.721 -5.202,0.183 -9.418,0.561 -9.89,1.207 l -0.14,0.49 c 0,2.508 14.539,25.246 17.264,25.293 0.444,0.008 0.981,-0.319 1.768,-1.091 C 55.975,92.266 67.444,74.94 67.444,72.097 L 67.351,71.668 C 67.14,71.252 66.58,70.827 62.39,70.523 c -1.266,-0.097 -3.01,-0.171 -5.011,-0.226 0.074,-0.537 0.128,-1.086 0.128,-1.651 l 0.016,-11.703 11.774,0.016 c 0.592,0 1.168,-0.055 1.732,-0.133 0.184,5.171 0.564,9.36 1.211,9.827 l 0.499,0.141 c 2.522,0 25.409,-14.445 25.455,-17.155 0.009,-0.44 -0.317,-0.974 -1.096,-1.752 z"
   id="path6"
   inkscape:connector-curvature="0"
   style="fill:#000000" />
</g>
</svg>