<?xml version="1.0" encoding="UTF-8" standalone="no"?>
<!-- Created with Inkscape (http://www.inkscape.org/) -->

<svg
   xmlns:dc="http://purl.org/dc/elements/1.1/"
   xmlns:cc="http://creativecommons.org/ns#"
   xmlns:rdf="http://www.w3.org/1999/02/22-rdf-syntax-ns#"
   xmlns:svg="http://www.w3.org/2000/svg"
   xmlns="http://www.w3.org/2000/svg"
   xmlns:sodipodi="http://sodipodi.sourceforge.net/DTD/sodipodi-0.dtd"
   xmlns:inkscape="http://www.inkscape.org/namespaces/inkscape"
   width="24.835556mm"
   height="24mm"
   viewBox="0 0 88.000002 85.039369"
   id="svg3381"
   version="1.1"
   inkscape:version="0.91 r13725"
   sodipodi:docname="penCat.svg">
  <defs
     id="defs3383" />
  <sodipodi:namedview
     id="base"
     pagecolor="#ffffff"
     bordercolor="#666666"
     borderopacity="1.0"
     inkscape:pageopacity="0.0"
     inkscape:pageshadow="2"
     inkscape:zoom="2.8493289"
     inkscape:cx="104.26273"
     inkscape:cy="10.523007"
     inkscape:document-units="px"
     inkscape:current-layer="g4237"
     showgrid="false"
     fit-margin-top="0"
     fit-margin-left="0"
     fit-margin-right="0"
     fit-margin-bottom="0"
     inkscape:window-width="1368"
     inkscape:window-height="849"
     inkscape:window-x="-8"
     inkscape:window-y="-8"
     inkscape:window-maximized="1" />
  <metadata
     id="metadata3386">
    <rdf:RDF>
      <cc:Work
         rdf:about="">
        <dc:format>image/svg+xml</dc:format>
        <dc:type
           rdf:resource="http://purl.org/dc/dcmitype/StillImage" />
        <dc:title></dc:title>
      </cc:Work>
    </rdf:RDF>
  </metadata>
  <g
     inkscape:label="Layer 1"
     inkscape:groupmode="layer"
     id="layer1"
     transform="translate(-333.9707,-464.79673)">
    <g
       id="g3362"
       transform="translate(327.9707,459.83608)">
      <g
         id="g4237"
         transform="translate(16.33229,15.819319)">
        <g
           id="g4217"
           transform="matrix(2.0205617,0,0,2.0205617,-0.47024373,-0.5613065)">
          <rect
             id="rect4219"
             height="2.0999999"
             width="8.8000002"
             transform="matrix(-0.7071,-0.7071,0.7071,-0.7071,36.5476,30.1004)"
             y="6.4000001"
             x="20.1" />
          <rect
             id="rect4221"
             height="21.9"
             width="8.8000002"
             transform="matrix(-0.707,-0.7072,0.7072,-0.707,13.4018,39.6871)"
             y="6.0999999"
             x="10.5" />
          <path
             id="path4223"
             d="m 30.8,7.5 c 1,-1 1,-2.6 0,-3.6 L 28.2,1.3 c -1,-1 -2.7,-1 -3.6,0 l -1.3,1.3 6.3,6.3 1.2,-1.4 z"
             inkscape:connector-curvature="0" />
          <path
             id="path4225"
             d="m 0.5,30.5 c -0.1,0.3 0,0.6 0.2,0.8 0.1,0.1 0.3,0.2 0.5,0.2 0.1,0 0.2,0 0.3,0 L 9,28.8 3.2,23 0.5,30.5 Z"
             inkscape:connector-curvature="0" />
        </g>
      </g>
    </g>
  </g>
</svg>
