<?xml version="1.0" encoding="UTF-8" standalone="no"?>
<svg
   xmlns:dc="http://purl.org/dc/elements/1.1/"
   xmlns:cc="http://creativecommons.org/ns#"
   xmlns:rdf="http://www.w3.org/1999/02/22-rdf-syntax-ns#"
   xmlns:svg="http://www.w3.org/2000/svg"
   xmlns="http://www.w3.org/2000/svg"
   xmlns:sodipodi="http://sodipodi.sourceforge.net/DTD/sodipodi-0.dtd"
   xmlns:inkscape="http://www.inkscape.org/namespaces/inkscape"
   version="1.1"
   x="0px"
   y="0px"
   viewBox="0 0 100.001 96.742997"
   enable-background="new 0 0 100 96.743"
   xml:space="preserve"
   id="svg2"
   inkscape:version="0.91 r13725"
   sodipodi:docname="save.svg"
   width="100.001"
   height="96.742996"><metadata
     id="metadata18"><rdf:RDF><cc:Work
         rdf:about=""><dc:format>image/svg+xml</dc:format><dc:type
           rdf:resource="http://purl.org/dc/dcmitype/StillImage" /><dc:title></dc:title></cc:Work></rdf:RDF></metadata><defs
     id="defs16" /><sodipodi:namedview
     pagecolor="#ffffff"
     bordercolor="#666666"
     borderopacity="1"
     objecttolerance="10"
     gridtolerance="10"
     guidetolerance="10"
     inkscape:pageopacity="0"
     inkscape:pageshadow="2"
     inkscape:window-width="640"
     inkscape:window-height="480"
     id="namedview14"
     showgrid="false"
     fit-margin-top="0"
     fit-margin-left="0"
     fit-margin-right="0"
     fit-margin-bottom="0"
     inkscape:zoom="1.9515624"
     inkscape:cx="50"
     inkscape:cy="36.278629"
     inkscape:window-x="0"
     inkscape:window-y="0"
     inkscape:window-maximized="0"
     inkscape:current-layer="svg2" /><g
     id="g4"
     style="fill:#ffffff"><rect
       x="56.945999"
       y="10.375"
       width="10.05"
       height="20.671"
       id="rect6"
       style="fill:#ffffff" /><path
       d="M 84.25,0 5.433,0 C 2.43,0 0,2.412 0,5.4 l 0,85.95 c 0,2.982 2.43,5.393 5.433,5.393 l 89.139,0 c 2.999,0 5.429,-2.41 5.429,-5.393 l 0,-75.865 L 84.25,0 Z M 19.608,10.796 c 0,-2.647 2.43,-4.809 5.433,-4.809 l 49.93,0 c 2.991,0 5.428,2.161 5.428,4.809 l 0,19.75 c 0,2.647 -2.437,4.809 -5.428,4.809 l -49.93,0 c -3.003,0 -5.433,-2.162 -5.433,-4.809 l 0,-19.75 0,0 z m 66.372,75.812 -71.957,0 0,-41.832 71.957,0 0,41.832 z"
       id="path8"
       inkscape:connector-curvature="0"
       style="fill:#ffffff" /></g></svg>